<?xml version="1.0" standalone="no"?>
<!DOCTYPE svg PUBLIC "-//W3C//DTD SVG 20010904//EN"
 "http://www.w3.org/TR/2001/REC-SVG-20010904/DTD/svg10.dtd">
<svg version="1.0" xmlns="http://www.w3.org/2000/svg"
 width="389.000000pt" height="372.000000pt" viewBox="0 0 389.000000 372.000000"
 preserveAspectRatio="xMidYMid meet">

<g transform="translate(0.000000,372.000000) scale(0.100000,-0.100000)"
fill="#ffffff" stroke="none">
<path d="M1917 3684 c-4 -4 -7 -531 -7 -1171 l0 -1163 40 0 40 0 -2 1168 -3
1167 -30 3 c-17 2 -34 0 -38 -4z"/>
<path d="M1854 1257 c-150 -39 -260 -142 -305 -288 -62 -198 37 -418 229 -507
51 -24 68 -27 172 -27 109 0 118 2 181 33 77 37 163 123 198 197 12 26 20 49
18 51 -2 2 -35 -9 -73 -24 -38 -16 -94 -35 -124 -42 -30 -8 -64 -22 -76 -32
-37 -33 -84 -17 -84 29 0 31 34 48 68 34 29 -12 101 5 212 49 97 38 100 42
100 114 0 179 -117 344 -285 401 -67 22 -168 28 -231 12z"/>
<path d="M143 900 c-44 -27 -61 -56 -78 -136 -21 -99 -19 -145 8 -184 47 -70
18 -62 607 -165 821 -142 770 -132 805 -165 61 -59 70 -60 465 -60 395 0 404
1 465 60 32 31 11 26 430 100 94 17 197 35 230 40 33 5 134 23 225 40 91 16
230 41 310 54 154 27 178 38 217 96 27 39 29 85 8 183 -22 107 -71 157 -152
157 -21 0 -191 -27 -378 -60 -318 -57 -447 -79 -735 -130 -63 -11 -118 -20
-122 -20 -4 0 -22 -33 -42 -73 -91 -187 -252 -290 -456 -290 -203 0 -367 104
-456 289 -19 41 -38 74 -42 74 -4 0 -32 4 -62 10 -230 39 -296 51 -372 64
-114 21 -198 35 -510 91 -141 25 -274 45 -295 45 -21 0 -52 -9 -70 -20z"/>
<path d="M2400 826 c0 -24 -3 -52 -6 -60 -11 -29 23 -7 36 23 8 19 8 35 1 54
-16 41 -31 32 -31 -17z"/>
<path d="M1274 214 c-9 -34 1 -90 21 -121 9 -14 37 -34 63 -45 40 -18 52 -19
95 -9 80 18 169 91 111 91 -21 0 -86 34 -121 64 -17 14 -52 29 -88 35 -77 14
-74 15 -81 -15z"/>
<path d="M2537 229 c-27 -6 -66 -23 -90 -42 -39 -30 -63 -42 -122 -62 -18 -6
-17 -9 15 -36 41 -35 129 -63 168 -54 73 15 122 74 122 144 0 63 -6 66 -93 50z"/>
</g>
</svg>
